<?xml version="1.0" encoding="UTF-8"?> <svg xmlns="http://www.w3.org/2000/svg" xmlns:xlink="http://www.w3.org/1999/xlink" fill="none" height="64" width="64" viewbox="0 0 64 64"><linearGradient id="a"><stop offset="0" stop-color="#f29c17"></stop><stop offset="1" stop-color="#fd1a8f"></stop></linearGradient><linearGradient id="b" gradientUnits="userSpaceOnUse" x1="20.267" x2="30.025" xlink:href="#a" y1="30.933" y2="36.075"></linearGradient><linearGradient id="c" gradientUnits="userSpaceOnUse" x1="49.067" x2="58.825" xlink:href="#a" y1="41.6" y2="46.742"></linearGradient><clipPath id="d"><path d="m0 0h64v64h-64z"></path></clipPath><g clip-path="url(#d)"><path d="m58.667 9.6h-2.133v4.267a2.133 2.133 0 0 1 -2.134 2.133h-2.133a2.133 2.133 0 0 1 -2.133-2.133v-4.267h-36.267v4.267a2.133 2.133 0 0 1 -2.133 2.133h-2.134a2.133 2.133 0 0 1 -2.133-2.133v-4.267h-2.133a4.267 4.267 0 0 0 -4.267 4.267v12.8h61.867v-12.8a4.267 4.267 0 0 0 -4.267-4.267zm-14.933 11.733h-23.467v-6.4h23.467zm-42.667 37.334a4.267 4.267 0 0 0 4.267 4.266h53.333a4.267 4.267 0 0 0 4.267-4.266v-32h-61.867z" fill="#1d1e22"></path><path d="m9.6 16h2.133a2.133 2.133 0 0 0 2.134-2.133v-10.667a2.133 2.133 0 0 0 -2.134-2.133h-2.133a2.133 2.133 0 0 0 -2.133 2.133v10.667c0 1.178.953 2.133 2.133 2.133zm42.667 0h2.133a2.133 2.133 0 0 0 2.133-2.133v-10.667a2.133 2.133 0 0 0 -2.133-2.133h-2.133a2.133 2.133 0 0 0 -2.134 2.133v10.667c0 1.178.955 2.133 2.134 2.133zm-8.534-1.067h-23.466v6.4h23.466z" fill="#1d1e22"></path><path d="m58.667 8.533h-1.067v-5.333c0-1.764-1.436-3.2-3.2-3.2h-2.133a3.204 3.204 0 0 0 -3.2 3.2v5.333h-34.134v-5.333c0-1.764-1.435-3.2-3.2-3.2h-2.133a3.204 3.204 0 0 0 -3.2 3.2v5.333h-1.067a5.34 5.34 0 0 0 -5.333 5.334v44.8a5.34 5.34 0 0 0 5.333 5.333h53.334a5.34 5.34 0 0 0 5.333-5.333v-44.8a5.34 5.34 0 0 0 -5.333-5.334zm-7.467-5.333c0-.589.478-1.067 1.067-1.067h2.133c.589 0 1.067.478 1.067 1.067v10.667c0 .588-.478 1.066-1.067 1.066h-2.133a1.067 1.067 0 0 1 -1.067-1.066zm-42.667 0c0-.589.478-1.067 1.067-1.067h2.133c.59 0 1.067.478 1.067 1.067v10.667c0 .588-.478 1.066-1.067 1.066h-2.133a1.067 1.067 0 0 1 -1.067-1.066zm-3.2 7.467h1.067v3.2c0 1.764 1.436 3.2 3.2 3.2h2.133c1.765 0 3.2-1.436 3.2-3.2v-3.2h34.134v3.2c0 1.764 1.435 3.2 3.2 3.2h2.133c1.764 0 3.2-1.436 3.2-3.2v-3.2h1.067c1.764 0 3.2 1.435 3.2 3.2v11.733h-59.734v-11.733c0-1.765 1.436-3.2 3.2-3.2zm53.334 51.2h-53.334a3.204 3.204 0 0 1 -3.2-3.2v-30.934h59.734v30.934c0 1.764-1.436 3.2-3.2 3.2z" fill="#fff"></path><path d="m20.267 22.4h23.466c.59 0 1.067-.477 1.067-1.067v-6.4c0-.59-.477-1.066-1.066-1.066h-23.467c-.59 0-1.067.476-1.067 1.066v6.4c0 .59.477 1.067 1.067 1.067zm1.067-6.4h21.333v4.267h-21.334v-4.267zm-7.467 14.933h-6.4c-.59 0-1.067.477-1.067 1.067v5.333c0 .59.477 1.067 1.067 1.067h6.4c.59 0 1.066-.477 1.066-1.067v-5.333c0-.59-.477-1.067-1.066-1.067zm-1.067 5.334h-4.267v-3.2h4.267z" fill="#fff"></path><path d="m27.733 30.933h-6.4c-.59 0-1.066.477-1.066 1.067v5.333c0 .59.476 1.067 1.066 1.067h6.4c.59 0 1.067-.477 1.067-1.067v-5.333c0-.59-.477-1.067-1.067-1.067zm-1.066 5.334h-4.267v-3.2h4.267z" fill="url(#b)"></path><path d="m36.267 38.4h6.4c.59 0 1.066-.477 1.066-1.067v-5.333c0-.59-.476-1.067-1.066-1.067h-6.4c-.59 0-1.067.477-1.067 1.067v5.333c0 .59.477 1.067 1.067 1.067zm1.066-5.333h4.267v3.2h-4.267zm19.2-2.134h-6.4c-.59 0-1.066.477-1.066 1.067v5.333c0 .59.477 1.067 1.067 1.067h6.4c.59 0 1.066-.477 1.066-1.067v-5.333c0-.59-.477-1.067-1.066-1.067zm-1.066 5.334h-4.267v-3.2h4.267zm-41.6 5.333h-6.4c-.59 0-1.067.477-1.067 1.067v5.333c0 .59.477 1.067 1.067 1.067h6.4c.59 0 1.066-.477 1.066-1.067v-5.333c0-.59-.477-1.067-1.066-1.067zm-1.067 5.333h-4.267v-3.2h4.267zm14.933-5.333h-6.4c-.59 0-1.066.477-1.066 1.067v5.333c0 .59.476 1.067 1.066 1.067h6.4c.59 0 1.067-.477 1.067-1.067v-5.333c0-.59-.477-1.067-1.067-1.067zm-1.066 5.333h-4.267v-3.2h4.267zm9.6 2.134h6.4c.59 0 1.066-.477 1.066-1.067v-5.333c0-.59-.476-1.067-1.066-1.067h-6.4c-.59 0-1.067.477-1.067 1.067v5.333c0 .59.477 1.067 1.067 1.067zm1.066-5.334h4.267v3.2h-4.267z" fill="#fff"></path><path d="m56.534 41.6h-6.4c-.59 0-1.067.477-1.067 1.067v5.333c0 .59.477 1.067 1.067 1.067h6.4c.59 0 1.066-.477 1.066-1.067v-5.333c0-.59-.477-1.067-1.066-1.067zm-1.067 5.333h-4.267v-3.2h4.267z" fill="url(#c)"></path><path d="m13.867 52.267h-6.4c-.59 0-1.067.476-1.067 1.066v5.334c0 .59.477 1.066 1.067 1.066h6.4c.59 0 1.066-.476 1.066-1.066v-5.334c0-.59-.477-1.066-1.066-1.066zm-1.067 5.333h-4.267v-3.2h4.267zm14.933-5.333h-6.4c-.59 0-1.066.476-1.066 1.066v5.334c0 .59.476 1.066 1.066 1.066h6.4c.59 0 1.067-.476 1.067-1.066v-5.334c0-.59-.477-1.066-1.067-1.066zm-1.066 5.333h-4.267v-3.2h4.267zm11.661-.513-2.374-2.375-1.508 1.509 3.2 3.2c.2.201.471.312.754.312h.048c.3-.015.58-.153.772-.383l5.334-6.4-1.64-1.366zm12.8 0-2.374-2.375-1.508 1.509 3.2 3.2c.2.201.472.312.754.312h.048c.3-.015.58-.153.773-.383l5.333-6.4-1.64-1.366-4.585 5.503z" fill="#fff"></path></g></svg> 