<?xml version="1.0" encoding="UTF-8"?> <svg xmlns="http://www.w3.org/2000/svg" xmlns:xlink="http://www.w3.org/1999/xlink" fill="none" height="64" width="64" viewbox="0 0 64 64"><linearGradient id="a"><stop offset="0" stop-color="#f29c17"></stop><stop offset="1" stop-color="#fd1a8f"></stop></linearGradient><linearGradient id="b" gradientUnits="userSpaceOnUse" x1="4.266" x2="17.242" xlink:href="#a" y1="32" y2="41.722"></linearGradient><linearGradient id="c" gradientUnits="userSpaceOnUse" x1="8.533" x2="18.815" xlink:href="#a" y1="21.333" y2="26.074"></linearGradient><linearGradient id="d" gradientUnits="userSpaceOnUse" x1="13.64" x2="28.391" xlink:href="#a" y1="28.799" y2="40.292"></linearGradient><linearGradient id="e" gradientUnits="userSpaceOnUse" x1="34.133" x2="35.673" xlink:href="#a" y1="21.333" y2="27.723"></linearGradient><linearGradient id="f" gradientUnits="userSpaceOnUse" x1="55.467" x2="58.836" xlink:href="#a" y1="21.333" y2="24.44"></linearGradient><linearGradient id="g" gradientUnits="userSpaceOnUse" x1="34.133" x2="35.673" xlink:href="#a" y1="29.867" y2="36.256"></linearGradient><linearGradient id="h" gradientUnits="userSpaceOnUse" x1="55.467" x2="58.836" xlink:href="#a" y1="29.867" y2="32.973"></linearGradient><linearGradient id="i" gradientUnits="userSpaceOnUse" x1="40.533" x2="42.073" xlink:href="#a" y1="25.6" y2="31.989"></linearGradient><linearGradient id="j" gradientUnits="userSpaceOnUse" x1="34.133" x2="37.502" xlink:href="#a" y1="25.6" y2="28.707"></linearGradient><clipPath id="k"><path d="m0 0h64v64h-64z"></path></clipPath><g clip-path="url(#k)"><g fill="#1d1e22"><path d="m59.467 62.933h-54.933a3.467 3.467 0 0 1 -3.467-3.466v-46.667h61.867v46.667a3.467 3.467 0 0 1 -3.467 3.466z"></path><path d="m62.934 13.867h-61.867v-9.334a3.467 3.467 0 0 1 3.467-3.466h54.933a3.467 3.467 0 0 1 3.467 3.466z"></path><path d="m5.333 5.333h4.267v4.267h-4.266v-4.267zm8.534 0h4.266v4.267h-4.266zm8.533 0h4.267v4.267h-4.267zm-17.066 12.8h23.466v21.334h-23.466z"></path><path d="m10.667 33.067-5.333 6.4h11.733zm2.133-4.267a3.2 3.2 0 1 0 0-6.4 3.2 3.2 0 0 0 0 6.4z"></path><path d="m21.333 29.867-7.466 9.6 14.933-1.067zm13.867 7.466h23.467v21.334h-23.467z"></path><path d="m40.533 52.267-5.333 6.4h11.733zm2.134-4.267a3.2 3.2 0 1 0 0-6.4 3.2 3.2 0 0 0 0 6.4z"></path><path d="m51.2 49.067-7.467 9.6 14.934-1.067z"></path></g><path d="m59.2 64h-54.4a4.806 4.806 0 0 1 -4.8-4.8v-54.4c0-2.646 2.154-4.8 4.8-4.8h54.4c2.646 0 4.8 2.154 4.8 4.8v54.4c0 2.646-2.154 4.8-4.8 4.8zm-54.4-61.867a2.67 2.67 0 0 0 -2.667 2.667v54.4a2.67 2.67 0 0 0 2.667 2.667h54.4a2.67 2.67 0 0 0 2.667-2.667v-54.4a2.67 2.67 0 0 0 -2.667-2.667z" fill="#fff"></path><path d="m9.6 10.667h-4.267a1.067 1.067 0 0 1 -1.066-1.067v-4.267c0-.588.478-1.066 1.066-1.066h4.267c.589 0 1.067.478 1.067 1.066v4.267c0 .589-.478 1.067-1.067 1.067zm-3.2-2.134h2.133v-2.133h-2.133zm11.733 2.134h-4.266a1.067 1.067 0 0 1 -1.067-1.067v-4.267c0-.588.478-1.066 1.066-1.066h4.267c.589 0 1.067.478 1.067 1.066v4.267c0 .589-.478 1.067-1.067 1.067zm-3.2-2.134h2.134v-2.133h-2.134zm11.734 2.134h-4.267a1.067 1.067 0 0 1 -1.066-1.067v-4.267c0-.588.477-1.066 1.066-1.066h4.267c.588 0 1.066.478 1.066 1.066v4.267c0 .589-.477 1.067-1.066 1.067zm-3.2-2.134h2.133v-2.133h-2.133z" fill="#fff"></path><path d="m62.933 14.933h-61.866a1.067 1.067 0 0 1 -1.067-1.066v-9.067c0-2.646 2.154-4.8 4.8-4.8h54.4c2.646 0 4.8 2.154 4.8 4.8v9.067c0 .588-.478 1.066-1.067 1.066zm-60.8-2.133h59.734v-8a2.67 2.67 0 0 0 -2.667-2.667h-54.4a2.67 2.67 0 0 0 -2.667 2.667z" fill="#fff"></path><path d="m17.067 40.533c-.273 0-.547-.104-.755-.312l-5.646-5.646-4.579 4.58a1.066 1.066 0 1 1 -1.508-1.509l5.333-5.333a1.066 1.066 0 0 1 1.508 0l6.4 6.4a1.066 1.066 0 0 1 -.753 1.82z" fill="url(#b)"></path><path d="m12.8 29.867a4.271 4.271 0 0 1 -4.267-4.267 4.271 4.271 0 0 1 4.267-4.267 4.27 4.27 0 0 1 4.267 4.267 4.271 4.271 0 0 1 -4.267 4.267zm0-6.4a2.135 2.135 0 0 0 -2.134 2.133c0 1.177.957 2.133 2.134 2.133a2.135 2.135 0 0 0 2.133-2.133 2.135 2.135 0 0 0 -2.133-2.133z" fill="url(#c)"></path><path d="m28.8 38.4c-.273 0-.546-.105-.754-.313l-6.68-6.679-5.873 6.402a1.066 1.066 0 1 1 -1.572-1.442l6.625-7.223c.196-.214.473-.339.763-.345.294-.013.571.106.777.312l7.467 7.467a1.066 1.066 0 0 1 -.753 1.821z" fill="url(#d)"></path><path d="m28.8 40.533h-23.467a1.067 1.067 0 0 1 -1.066-1.066v-21.334c0-.588.478-1.066 1.066-1.066h23.467c.589 0 1.067.478 1.067 1.066v21.334c0 .588-.478 1.066-1.067 1.066zm-22.4-2.133h21.333v-19.2h-21.333zm52.267 21.333h-23.467a1.067 1.067 0 0 1 -1.067-1.066v-21.334c0-.588.478-1.066 1.067-1.066h23.467c.588 0 1.066.478 1.066 1.066v21.334c0 .588-.478 1.066-1.066 1.066zm-22.4-2.133h21.333v-19.2h-21.333z" fill="#fff"></path><path d="m46.933 59.733c-.273 0-.546-.104-.754-.312l-5.646-5.646-4.58 4.58a1.066 1.066 0 1 1 -1.507-1.509l5.333-5.333a1.066 1.066 0 0 1 1.508 0l6.4 6.4a1.066 1.066 0 0 1 -.754 1.82zm-4.266-10.666a4.271 4.271 0 0 1 -4.267-4.267 4.271 4.271 0 0 1 4.267-4.267 4.271 4.271 0 0 1 4.266 4.267 4.271 4.271 0 0 1 -4.266 4.267zm0-6.4a2.135 2.135 0 0 0 -2.134 2.133c0 1.177.957 2.133 2.134 2.133a2.135 2.135 0 0 0 2.133-2.133 2.135 2.135 0 0 0 -2.133-2.133z" fill="#fff"></path><path d="m58.667 57.6c-.273 0-.546-.105-.754-.313l-6.68-6.679-5.873 6.402a1.066 1.066 0 1 1 -1.572-1.442l6.625-7.223a1.067 1.067 0 0 1 1.54-.033l7.467 7.467a1.066 1.066 0 0 1 -.753 1.821z" fill="#fff"></path><path d="m52.267 23.467h-17.067a1.067 1.067 0 0 1 0-2.134h17.067a1.067 1.067 0 0 1 0 2.134z" fill="url(#e)"></path><path d="m58.667 23.467h-2.134a1.067 1.067 0 0 1 0-2.134h2.134a1.067 1.067 0 0 1 0 2.134z" fill="url(#f)"></path><path d="m52.267 32h-17.067a1.067 1.067 0 0 1 0-2.133h17.067a1.067 1.067 0 0 1 0 2.133z" fill="url(#g)"></path><path d="m58.667 32h-2.134a1.067 1.067 0 0 1 0-2.133h2.134a1.067 1.067 0 0 1 0 2.133z" fill="url(#h)"></path><path d="m58.666 27.733h-17.066a1.067 1.067 0 0 1 0-2.133h17.066a1.067 1.067 0 0 1 0 2.133z" fill="url(#i)"></path><path d="m37.333 27.733h-2.133a1.067 1.067 0 0 1 0-2.133h2.133a1.067 1.067 0 0 1 0 2.133z" fill="url(#j)"></path><path d="m22.4 46.933h-17.067a1.067 1.067 0 0 1 0-2.133h17.067a1.067 1.067 0 0 1 0 2.133zm6.4 0h-2.133a1.067 1.067 0 0 1 0-2.133h2.133a1.067 1.067 0 0 1 0 2.133zm-6.4 8.534h-17.067a1.067 1.067 0 0 1 0-2.134h17.067a1.067 1.067 0 0 1 0 2.134zm6.4 0h-2.133a1.067 1.067 0 0 1 0-2.134h2.133a1.067 1.067 0 0 1 0 2.134zm0-4.267h-17.067a1.067 1.067 0 0 1 0-2.133h17.067a1.067 1.067 0 0 1 0 2.133zm-21.333 0h-2.134a1.067 1.067 0 0 1 0-2.133h2.134a1.067 1.067 0 0 1 0 2.133z" fill="#fff"></path></g></svg> 